<svg id="Layer_1" data-name="Layer 1" xmlns="http://www.w3.org/2000/svg" viewBox="0 0 483.97 156.7"><title>kc_logo_design_header</title><rect x="76.77" y="0.5" width="406.7" height="155.7" style="fill:#999;stroke:#000;stroke-miterlimit:10"/><rect x="82.02" y="9.21" width="135.01" height="135.01" style="fill:none"/><path d="M-71.85,56.25h.31l4.85-11.59a1.3,1.3,0,0,1,1.28-.8h2.33a1.33,1.33,0,0,1,1.2,1.93l-5.39,12.58L-61.88,71a1.33,1.33,0,0,1-1.2,1.93h-2.33a1.3,1.3,0,0,1-1.28-.8L-71.54,60.5h-.31v11a1.26,1.26,0,0,1-1.35,1.4h-2.21a1.26,1.26,0,0,1-1.36-1.4V45.22a1.23,1.23,0,0,1,1.36-1.36h2.21a1.23,1.23,0,0,1,1.35,1.36Z" transform="translate(76.77 3.63)"/><path d="M-45.74,54.12a1.26,1.26,0,0,1-1.35,1.41h-2.22a1.26,1.26,0,0,1-1.35-1.41V49.87a2,2,0,0,0-2.21-2.28c-1.6,0-2.18.92-2.18,2.28v17c0,1.37.58,2.29,2.18,2.29a2,2,0,0,0,2.21-2.29V62.58a1.23,1.23,0,0,1,1.35-1.36h2.22a1.23,1.23,0,0,1,1.35,1.36v4.29c0,4.17-2.25,6.22-7.13,6.22S-60,71-60,66.87v-17c0-4.16,2.21-6.21,7.1-6.21s7.13,2.05,7.13,6.21Z" transform="translate(76.77 3.63)"/><text transform="translate(126.55 95.58)" style="font-size:68px;font-family:AdornGarland, Adorn Garland">Design</text></svg>